<svg xmlns="http://www.w3.org/2000/svg" viewBox="0 0 200 200" preserveAspectRatio="xMidYMid meet">
  <!-- Fondo burdeos para todo el logo -->
  <rect width="200" height="200" fill="#800040" rx="10" ry="10"/>
  
  <!-- Círculo blanco con borde dorado -->
  <circle cx="100" cy="100" r="90" fill="#FFFFFF" stroke="#D4AF37" stroke-width="5"/>
  
  <!-- Cámara de cine retro con trípode, rectangular, con discos de cintas y foco hacia la derecha -->
  <g transform="translate(55, 65) scale(0.8)">
    <!-- Trípode -->
    <path d="M60,80 L35,125 M60,80 L85,125 M60,80 L60,125" stroke="#333" stroke-width="3" fill="none"/>
    <path d="M33,125 L37,125 M58,125 L62,125 M83,125 L87,125" stroke="#333" stroke-width="3" fill="none"/>
    <circle cx="60" cy="80" r="5" fill="#444" stroke="#333" stroke-width="1"/>
    
    <!-- Cuerpo principal de la cámara (rectangular) -->
    <rect x="25" y="20" width="70" height="50" rx="3" ry="3" fill="#D4AF37" stroke="#B89030" stroke-width="2"/>
    
    <!-- Lente apuntando hacia la derecha -->
    <rect x="95" y="35" width="20" height="20" rx="3" ry="3" fill="#333" stroke="#B89030" stroke-width="2"/>
    <circle cx="105" cy="45" r="6" fill="#222" stroke="#B89030" stroke-width="1"/>
    <circle cx="105" cy="45" r="3" fill="#111"/>
    
    <!-- Discos de cintas (uno más grande que el otro) -->
    <g fill="#D4AF37" stroke="#B89030" stroke-width="1">
      <circle cx="40" cy="10" r="15"/>
      <circle cx="40" cy="10" r="10" fill="#333" stroke="#222"/>
      <circle cx="40" cy="10" r="3"/>
      <path d="M40,10 L40,0 M40,10 L47,17" stroke="#D4AF37" stroke-width="1"/>
    </g>
    <g fill="#D4AF37" stroke="#B89030" stroke-width="1">
      <circle cx="75" cy="5" r="10"/>
      <circle cx="75" cy="5" r="7" fill="#333" stroke="#222"/>
      <circle cx="75" cy="5" r="2"/>
      <path d="M75,5 L75,-1 M75,5 L80,10" stroke="#D4AF37" stroke-width="1"/>
    </g>
    
    <!-- Detalles de la cámara -->
    <rect x="25" y="45" width="15" height="8" rx="1" ry="1" fill="#444" stroke="#333" stroke-width="1"/>
    <rect x="45" y="45" width="15" height="8" rx="1" ry="1" fill="#444" stroke="#333" stroke-width="1"/>
    
    <!-- Manivela lateral -->
    <circle cx="25" cy="35" r="6" fill="#D4AF37" stroke="#B89030" stroke-width="1"/>
    <rect x="10" y="33" width="15" height="4" rx="2" ry="2" fill="#D4AF37" stroke="#B89030" stroke-width="1"/>
    
    <!-- Visor superior -->
    <rect x="45" y="10" width="20" height="10" rx="1" ry="1" fill="#444" stroke="#333" stroke-width="1"/>
  </g>
</svg>